# xmcd
#
# Track frame offsets:
#	150
#	9812
#	24908
#	34205
#	54983
#	66916
#	81580
#	90599
#	107547
#	125931
#	142630
#	158771
#
# Disc length: 2306 seconds
# Revision: 0
# Processed by: cddbd v1.5.2PL0 Copyright (c) Steve Scherf et al.
# Submitted via: dBpowerAMP V12.0
#
DISCID=8e09000c
DTITLE=Arthur James - Me, Myself and I
DYEAR=2014
DGENRE=Blues Acoustic Instrumental
TTITLE0=292 Nashua St
TTITLE1=Blues, Blues, Blues
TTITLE2=What You Tryin' To Do
TTITLE3=Long Black Road
TTITLE4=Ooh Yeah!
TTITLE5=Things Ain't No Better
TTITLE6=Got Me A Woman
TTITLE7=Drownin' On Dry Land
TTITLE8=Forgotten Youth
TTITLE9=Kumbaya
TTITLE10=Waiter There's A Bomb In My Soup
TTITLE11=LIfe
EXTD=
EXTT0=
EXTT1=
EXTT2=
EXTT3=
EXTT4=
EXTT5=
EXTT6=
EXTT7=
EXTT8=
EXTT9=
EXTT10=
EXTT11=
PLAYORDER=
